# xmcd
#
# Track frame offsets: 
#        150
#        29280
#        45967
#        66547
#        81269
#        98603
#        117555
#        130049
#        146579
#        162929
#        179167
#        202455
#        216203
#        221858
#        244456
#
# Disc length: 3511 seconds
#
# Revision: 0
# Processed by: cddbd v1.5.2PL0 Copyright (c) Steve Scherf et al.
# Submitted via: ExactAudioCopy v1.0b6
#
DISCID=f10db50f
DTITLE=Hugh Laurie - Let Them Talk
DYEAR=2011
DGENRE=Blues
TTITLE0=St. James Infirmary
TTITLE1=You Don't Know My Mind
TTITLE2=Six Cold Feet
TTITLE3=Buddy Bolden's Blues
TTITLE4=Battle of Jericho
TTITLE5=After You've Gone
TTITLE6=Swanee River
TTITLE7=The Whale Has Swallowed Me
TTITLE8=John Henry
TTITLE9=Police Dog Blues
TTITLE10=Tipitina
TTITLE11=Winin' Boy Blues
TTITLE12=They're Red Hot
TTITLE13=Baby Please Make a Change
TTITLE14=Let Them Talk
EXTD=
EXTT0=
EXTT1=
EXTT2=
EXTT3=
EXTT4=
EXTT5=
EXTT6=
EXTT7=
EXTT8=
EXTT9=
EXTT10=
EXTT11=
EXTT12=
EXTT13=
EXTT14=
PLAYORDER=
